<?xml version="1.0" encoding="utf-8"?>
<!-- Generator: Adobe Illustrator 16.0.0, SVG Export Plug-In . SVG Version: 6.00 Build 0)  -->
<!DOCTYPE svg PUBLIC "-//W3C//DTD SVG 1.1//EN" "http://www.w3.org/Graphics/SVG/1.1/DTD/svg11.dtd">
<svg version="1.1" id="Layer_1" xmlns="http://www.w3.org/2000/svg" xmlns:xlink="http://www.w3.org/1999/xlink" x="0px" y="0px"
	 width="1000px" height="1000px" viewBox="0 0 1000 1000" enable-background="new 0 0 1000 1000" xml:space="preserve">
<rect x="0" fill="#2D3689" stroke="#4CA49E" stroke-miterlimit="10" width="1000" height="1000"/>
<rect fill="#050206" stroke="#64AFC6" stroke-miterlimit="10" width="160" height="1000"/>
<g>
	<polygon fill="#EAD9C6" points="655.653,821.226 655.534,821.36 621.822,944.903 700.585,866.157 	"/>
	<path fill="#C95A4A" d="M981.925,584.819l-21.137-21.136c-13.135-13.136-34.44-13.136-47.576,0L852.5,624.396l44.933,44.932
		L981.925,584.819z"/>
	
		<rect x="744.767" y="606.079" transform="matrix(-0.7071 -0.7071 0.7071 -0.7071 798.6639 1821.3406)" fill="#DA9433" width="63.542" height="278.369"/>
	<polygon fill="#D3C2B0" points="751.398,917.241 751.534,917.106 700.585,866.157 621.822,944.903 619.568,953.19 	"/>
	<path fill="#9D473F" d="M948.382,720.26l60.712-60.712c13.136-13.136,13.136-34.44,0-47.576l-27.153-27.152l-84.49,84.491
		L948.382,720.26z"/>
	
		<rect x="788.448" y="654.041" transform="matrix(0.7071 0.7071 -0.7071 0.7071 802.378 -350.6597)" fill="#D6882E" width="72.05" height="278.37"/>
	<path fill="#2D3689" stroke="#4CA49E" stroke-miterlimit="10" d="M607.585,982.124c-4.339,0-8.678-1.662-11.982-4.967
		c-6.627-6.627-6.627-17.34,0-23.967l37.406-37.406c6.627-6.627,17.34-6.627,23.967,0s6.627,17.34,0,23.967l-37.407,37.406
		C616.263,980.462,611.925,982.124,607.585,982.124z"/>
</g>
<g>
	<path fill="#030104" d="M332.93,529.313l-0.02-0.172h-0.008c-0.076,0.107-0.223,0.203-0.418,0.203
		c-0.277,0-0.418-0.195-0.418-0.393c0-0.33,0.294-0.511,0.822-0.508v-0.028c0-0.113-0.031-0.316-0.311-0.316
		c-0.127,0-0.26,0.04-0.356,0.102l-0.056-0.164c0.113-0.073,0.276-0.121,0.449-0.121c0.418,0,0.52,0.285,0.52,0.559v0.512
		c0,0.118,0.005,0.234,0.022,0.327H332.93z M332.894,528.616c-0.271-0.006-0.579,0.042-0.579,0.308c0,0.161,0.107,0.237,0.234,0.237
		c0.178,0,0.291-0.113,0.33-0.229c0.009-0.025,0.014-0.054,0.014-0.079V528.616z"/>
</g>
<g>
	<rect x="240.435" y="178.542" fill="#389742" width="519.131" height="251.395"/>
	<g>
		<path fill="#DADB34" stroke="#FBFADF" stroke-miterlimit="10" d="M311.653,130.09c-2.382,0-5.06,0.128-8.032,0.383
			c-2.977,0.255-5.825,0.382-8.542,0.382c-2.721,0-5.14-0.211-7.268-0.637c-2.124-0.422-3.442-1.315-3.953-2.678
			c-1.02-0.849-1.02-1.825,0-2.933c1.02-1.104,1.957-2.08,2.805-2.933c3.231-0.338,6.032-0.593,8.415-0.765
			c2.378-0.167,4.59-0.383,6.63-0.638s3.992-0.51,5.865-0.765c1.869-0.255,3.825-0.55,5.865-0.892
			c2.55-9.519,4.929-18.615,7.14-27.285c2.207-8.67,4.335-17.252,6.375-25.755c2.04-8.499,4.036-17.085,5.992-25.755
			c1.953-8.67,4.037-17.762,6.248-27.285c1.53-2.208,2.805-3.355,3.825-3.442c1.02-0.084,2.717-0.04,5.1,0.127
			c1.02,5.442,1.785,10.033,2.295,13.77c0.51,3.741,0.976,7.522,1.402,11.347c0.422,3.825,0.933,8.077,1.53,12.75
			c0.593,4.678,1.402,10.583,2.422,17.723c0.677,7.312,1.614,14.495,2.805,21.547c1.187,7.057,2.207,14.324,3.06,21.803
			c4.419-0.677,8.67-1.403,12.75-2.167c4.08-0.765,7.69-1.442,10.838-2.04c3.144-0.594,5.693-1.06,7.65-1.403
			c1.952-0.338,2.933-0.422,2.933-0.255c0.51,1.53-0.299,3.021-2.423,4.462c-2.127,1.447-4.889,2.893-8.287,4.335
			c-3.403,1.446-7.057,2.805-10.965,4.08c-3.913,1.275-7.395,2.423-10.455,3.443c0.339,3.231,0.933,7.267,1.785,12.112
			c0.849,4.845,1.741,9.989,2.678,15.428c0.932,5.442,1.912,10.925,2.932,16.447c1.02,5.526,1.913,10.542,2.678,15.045
			s1.315,8.244,1.657,11.22c0.339,2.972,0.339,4.63,0,4.972c-2.893,0.339-4.972,0.04-6.247-0.892
			c-1.275-0.937-2.849-1.746-4.718-2.423c-1.363-11.22-3.06-22.651-5.1-34.297c-2.04-11.643-3.658-23.245-4.845-34.808
			c-3.913,0.853-8.885,2-14.917,3.442c-6.037,1.447-12.284,2.678-18.743,3.698c-1.02,3.741-1.957,7.905-2.805,12.495
			c-0.853,4.59-1.701,8.969-2.55,13.132c-0.853,4.167-1.574,7.905-2.167,11.22c-0.598,3.315-1.147,5.482-1.658,6.502
			c-0.853,0.853-2.339,1.402-4.462,1.657c-2.127,0.255-3.869-0.295-5.228-1.657c0-1.02,0.383-3.355,1.147-7.013
			c0.765-3.654,1.658-7.69,2.678-12.112c1.02-4.419,2.08-8.71,3.188-12.877C310.08,135.744,310.972,132.473,311.653,130.09z
			 M323.894,117.595c2.55-0.51,5.355-1.06,8.415-1.658c3.06-0.594,5.905-1.231,8.542-1.913c2.634-0.677,4.929-1.231,6.885-1.657
			c1.953-0.422,3.1-0.721,3.443-0.893c-0.343-3.737-0.638-6.841-0.893-9.308c-0.255-2.462-0.51-5.056-0.765-7.777
			c-0.255-2.717-0.554-5.905-0.893-9.563c-0.343-3.654-0.853-8.626-1.53-14.917c-1.363-10.71-2.339-18.699-2.933-23.97
			c-0.598-5.267-1.147-6.969-1.658-5.1c-2.382,9.18-4.462,17.129-6.247,23.843c-1.785,6.718-3.403,12.921-4.845,18.615
			c-1.446,5.698-2.765,11.264-3.953,16.703C326.272,105.443,325.081,111.308,323.894,117.595z"/>
		<path fill="#DADB34" stroke="#FBFADF" stroke-miterlimit="10" d="M468.221,150.745c0.338,0.343,0.294,0.936-0.128,1.785
			c-0.426,0.853-1.02,1.785-1.785,2.805s-1.53,2-2.295,2.933c-0.765,0.937-1.319,1.574-1.658,1.913
			c-4.08,4.59-7.738,8.542-10.965,11.857c-3.231,3.315-5.865,6.164-7.905,8.542c0,0.167-0.043,1.147-0.127,2.933
			c-0.087,1.785-0.127,2.761-0.127,2.932c-0.343,5.777-0.47,11.603-0.382,17.468c0.083,5.865-0.299,11.77-1.147,17.723
			c-1.02,6.797-2.084,12.28-3.188,16.447c-1.108,4.164-2.255,7.563-3.443,10.2c-1.191,2.633-2.422,4.845-3.697,6.63
			s-2.678,3.781-4.208,5.993c-1.363,1.869-2.893,3.482-4.59,4.845c-1.702,1.359-3.997,2.972-6.885,4.845
			c-3.913,2.378-7.993,4.164-12.24,5.355c-4.251,1.187-8.16,1.402-11.73,0.637c-3.57-0.765-6.586-2.677-9.053-5.737
			c-2.462-3.06-3.865-7.65-4.208-13.77c-0.338-6.801,0.853-13.515,3.57-20.145c2.722-6.63,5.949-12.667,9.69-18.105
			c3.737-5.443,7.395-10.033,10.965-13.77c3.57-3.741,6.032-6.292,7.395-7.65c2.208-2.383,4.208-4.423,5.993-6.12
			c1.785-1.701,3.609-3.275,5.482-4.717c1.869-1.447,3.865-3.021,5.992-4.718c2.124-1.701,4.63-3.737,7.522-6.12
			c0.678-4.08,1.104-8.371,1.275-12.877c0.167-4.502,0.167-9.136,0-13.897c-3.06,6.292-6.335,11.22-9.818,14.79
			c-3.486,3.57-6.63,6.248-9.435,8.033c-2.805,1.785-5.1,2.893-6.885,3.315c-1.785,0.426-2.51,0.637-2.167,0.637
			c-3.231,0.51-5.825,0.638-7.777,0.383c-1.957-0.255-3.486-0.765-4.59-1.53c-1.107-0.765-1.956-1.657-2.55-2.677
			c-0.598-1.02-1.064-2.04-1.402-3.06c-0.853-4.419-0.809-8.965,0.127-13.643c0.932-4.674,2.334-9.136,4.208-13.388
			c1.869-4.247,3.909-8.16,6.12-11.73c2.208-3.57,4.248-6.458,6.12-8.67c0.339-0.338,1.147-1.231,2.422-2.677
			c1.275-1.442,2.933-3.06,4.973-4.845s4.546-3.61,7.522-5.482c2.973-1.869,6.415-3.57,10.328-5.1
			c3.909-0.849,7.905-1.231,11.985-1.147c4.08,0.088,7.395,1.064,9.945,2.933c-1.363,0.51-3.443,1.147-6.248,1.913
			c-2.805,0.765-4.634,1.319-5.482,1.657v0.51c0,0.51,0.167,0.765,0.51,0.765c-2.893-0.677-7.395,0.51-13.515,3.57
			c-6.12,3.06-12.75,8.925-19.89,17.595c-3.231,4.59-5.698,8.714-7.395,12.368c-1.702,3.658-2.933,6.801-3.698,9.435
			c-0.765,2.638-1.147,4.889-1.147,6.757c0,1.873,0.083,3.315,0.255,4.335c0.167,0.682,0.765,1.275,1.785,1.785
			s2.295,0.598,3.825,0.255c4.418-1.02,8.542-3.271,12.367-6.757c3.825-3.482,7.308-7.435,10.455-11.857
			c3.144-4.419,5.821-8.754,8.033-13.005c2.207-4.247,3.825-7.65,4.845-10.2c1.697-3.909,2.59-7.522,2.678-10.837
			c0.083-3.315-0.044-4.973-0.383-4.973c0.51,0,0.849,0,1.02,0c0.167,0,0.211,0.044,0.127,0.127
			c-0.087,0.088-0.637,0.215-1.657,0.382c0.338-0.338,0.677-0.55,1.02-0.637c0.338-0.083,0.677-0.211,1.02-0.382
			c-0.171-0.167-0.127-0.383,0.127-0.638s0.55-0.382,0.893-0.382c0-0.339,0.422-0.678,1.275-1.02l1.53-0.51l0.765-0.51
			c0.677-0.339,1.104-0.594,1.275-0.765c0.167-0.167,0.383-0.255,0.638-0.255s0.721,0.127,1.402,0.382
			c0.677,0.255,1.869,0.638,3.57,1.147c-1.53,4.08-2.849,9.053-3.953,14.917c-1.108,5.865-2.084,11.774-2.933,17.723
			c-0.853,5.953-1.574,11.603-2.167,16.958c-0.598,5.355-1.147,9.563-1.657,12.623c1.358-1.359,3.354-2.973,5.992-4.845
			c2.634-1.869,5.228-3.737,7.777-5.61C461.59,155.08,464.818,152.957,468.221,150.745z M436.09,194.86
			c0.51-3.913,0.422-6.291-0.255-7.14c-0.343-0.51-0.765-0.682-1.275-0.51c-4.59,3.737-8.332,6.885-11.22,9.435
			c-2.893,2.55-4.845,4.248-5.865,5.1c-8.16,7.65-14.24,14.407-18.232,20.272c-3.997,5.865-6.674,11.26-8.033,16.192
			c-1.873,5.439-2.933,10.24-3.188,14.408c-0.255,4.164,0.805,8.2,3.188,12.112c4.248,3.228,8.881,3.865,13.897,1.913
			c5.012-1.957,9.646-4.973,13.897-9.053c4.929-5.61,8.925-13.475,11.985-23.587C434.05,223.886,435.748,210.837,436.09,194.86z"/>
		<path fill="#DADB34" stroke="#FBFADF" stroke-miterlimit="10" d="M486.069,106.375c0.51-0.167,1.953-0.638,4.336-1.402
			c2.379-0.765,4.334-0.893,5.865-0.383c4.928-0.167,8.709,1.108,11.346,3.825c2.635,2.721,2.846,7.993,0.639,15.81
			c-3.232,8.67-7.523,15.897-12.877,21.675c-5.355,5.781-11.691,11.308-18.998,16.575c1.697,4.422,4.248,6.885,7.65,7.395
			c3.398,0.51,6.969-0.04,10.709-1.658c3.738-1.614,7.395-3.781,10.965-6.502c3.57-2.717,6.459-5.1,8.67-7.14
			c3.57-3.06,6.416-5.649,8.543-7.777c2.123-2.124,4.375-4.717,6.758-7.777c0.51-0.339,0.805-0.295,0.893,0.127
			c0.084,0.426,0.039,1.064-0.127,1.913c-0.172,0.853-0.428,2.04-0.766,3.57c-0.51,1.191-1.02,2.255-1.529,3.188
			c-0.512,0.937-1.236,1.957-2.168,3.06c-0.938,1.107-2.168,2.422-3.697,3.953c-1.531,1.53-3.402,3.57-5.611,6.12
			c-2.549,2.383-5.016,4.718-7.395,7.013c-2.383,2.295-4.889,4.295-7.521,5.993c-2.639,1.701-5.527,2.893-8.67,3.57
			c-3.148,0.681-6.758,0.681-10.838,0c-3.402-1.188-6.121-2.462-8.16-3.825c-2.041-1.358-3.614-2.761-4.718-4.208
			c-1.108-1.442-1.913-2.761-2.422-3.952c-0.51-1.188-0.853-2.208-1.02-3.06c-0.853-3.399-1.191-7.989-1.02-13.77
			c0.167-5.777,1.869-13.26,5.1-22.44c2.208-4.757,4.59-8.797,7.141-12.113C479.694,110.837,482.667,108.248,486.069,106.375z
			 M474.851,151.51c2.207-1.188,4.801-2.845,7.777-4.973c2.971-2.124,5.777-4.59,8.414-7.395c2.635-2.805,4.93-5.905,6.885-9.308
			c1.953-3.398,3.016-6.969,3.188-10.71c0.51-2.55,0.422-4.335-0.254-5.355c-0.344-0.51-0.682-0.765-1.021-0.765
			c-2.893-1.358-5.781-0.932-8.67,1.275c-2.893,2.211-5.525,5.355-7.904,9.435c-2.383,4.08-4.379,8.63-5.992,13.643
			C475.655,142.374,474.851,147.091,474.851,151.51z"/>
		<path fill="#DADB34" stroke="#FBFADF" stroke-miterlimit="10" d="M538.855,100.765c0,4.761-0.044,9.522-0.128,14.28
			c-0.088,4.761-0.171,9.352-0.255,13.77c-0.088,4.423-0.171,8.586-0.255,12.495c-0.088,3.913-0.215,7.395-0.383,10.455
			c0-0.677,0.383-2.335,1.147-4.973c0.766-2.634,1.825-5.65,3.188-9.052c1.358-3.399,2.845-7.013,4.463-10.838
			c1.613-3.825,3.354-7.224,5.228-10.2c1.868-2.973,3.781-5.311,5.737-7.013c1.952-1.697,3.781-2.207,5.482-1.53
			c3.737,1.701,6.375,4.167,7.905,7.395c1.529,3.231,2.634,6.929,3.314,11.092c0.678,4.168,1.359,8.797,2.04,13.897
			c0.678,5.1,2.208,10.455,4.59,16.065c1.021,2.55,2.507,4.423,4.463,5.61c1.952,1.191,3.825,2.04,5.61,2.55
			c1.785,0.51,3.227,0.809,4.335,0.893c1.104,0.087,1.486,0.382,1.147,0.893c-4.252,3.231-7.905,4.335-10.965,3.315
			c-3.061-1.02-5.654-3.271-7.778-6.758c-2.127-3.482-3.868-7.65-5.228-12.495c-1.362-4.845-2.594-9.519-3.697-14.025
			c-1.107-4.502-2.084-8.328-2.933-11.475c-0.853-3.144-1.784-4.718-2.805-4.718c-1.53,0.171-3.188,1.618-4.973,4.335
			c-1.785,2.722-3.613,6.12-5.482,10.2c-1.872,4.08-3.657,8.542-5.354,13.388c-1.702,4.845-3.275,9.395-4.718,13.642
			c-1.446,4.251-2.594,7.905-3.442,10.965c-0.853,3.06-1.363,4.933-1.53,5.61c-2.55,0-4.124,0.083-4.718,0.255
			c-0.598,0.167-1.573-0.677-2.933-2.55c0.849-14.958,1.147-29.11,0.893-42.458c-0.255-13.344-0.637-24.946-1.147-34.808
			c0-1.53,0.383-2.295,1.147-2.295c0.766,0,1.614,0.343,2.551,1.02c0.932,0.681,1.912,1.363,2.932,2.04
			C537.325,100.426,538.174,100.765,538.855,100.765z"/>
		<path fill="#DADB34" stroke="#FBFADF" stroke-miterlimit="10" d="M684.202,44.41c-0.51,3.06-1.107,6.291-1.784,9.69
			c-0.682,3.403-1.403,6.63-2.168,9.69s-1.402,5.698-1.912,7.905c-0.511,2.211-0.854,3.57-1.021,4.08
			c-1.02,2.893-2.383,6.63-4.08,11.22c-1.701,4.59-3.697,9.395-5.992,14.407c-2.295,5.017-4.889,10.033-7.777,15.045
			c-2.893,5.016-5.865,9.307-8.925,12.877c0,2.55,0.294,6.845,0.892,12.877c0.594,6.036,1.315,12.539,2.168,19.507
			c0.849,6.973,1.657,13.814,2.423,20.527c0.765,6.714,1.23,11.941,1.402,15.683c-0.853,0.849-1.618,0.677-2.295-0.51
			c-0.682-1.191-1.701-3.231-3.061-6.12c-1.02-4.423-1.828-8.502-2.422-12.24c-0.598-3.737-1.147-7.522-1.658-11.347
			c-0.51-3.825-1.063-7.861-1.657-12.113c-0.598-4.247-1.49-9.092-2.678-14.535c-3.231,4.08-7.1,8.714-11.603,13.897
			c-4.506,5.188-9.18,9.777-14.024,13.77c-4.846,3.996-9.606,6.801-14.28,8.415c-4.678,1.613-8.714,0.893-12.112-2.167
			c-2.04-2.717-2.933-5.905-2.678-9.563c0.255-3.654,1.275-7.395,3.06-11.22c1.785-3.825,4.08-7.606,6.886-11.348
			c2.805-3.737,5.649-7.224,8.542-10.455c2.889-3.228,5.61-6.033,8.16-8.415c2.55-2.379,4.419-4.08,5.61-5.1
			c2.378-1.53,4.375-2.761,5.992-3.698c1.613-0.932,3.06-1.697,4.335-2.295c1.275-0.594,2.59-1.02,3.952-1.275
			c1.359-0.255,3.061-0.295,5.101-0.127c-0.343-3.909-0.554-8.583-0.638-14.025c-0.088-5.439-0.088-10.921,0-16.448
			c0.084-5.522,0.255-10.666,0.51-15.427c0.255-4.757,0.638-8.415,1.147-10.965c0.339-3.737,1.147-7.65,2.423-11.73
			s2.889-8.032,4.845-11.857c1.952-3.825,4.12-7.224,6.503-10.2c2.379-2.973,4.973-5.1,7.777-6.375
			c2.805-1.275,5.693-1.57,8.67-0.893c2.973,0.681,5.905,2.805,8.798,6.375c2.378,2.893,3.569,6.502,3.569,10.837
			S684.202,39.653,684.202,44.41z M613.567,136.21c-4.59,4.761-7.948,9.14-10.072,13.133c-2.128,3.996-3.869,7.693-5.228,11.092
			c0,0.51,0,1.319,0,2.422c0,1.108,0.127,2.167,0.383,3.188c0.255,1.02,0.765,1.913,1.529,2.678c0.766,0.765,1.996,0.98,3.698,0.637
			c1.697-0.677,3.1-1.358,4.207-2.04c1.104-0.677,2.124-1.402,3.06-2.167c0.933-0.765,1.953-1.57,3.061-2.422
			c1.104-0.849,2.506-1.952,4.207-3.315c2.379-2.55,5.312-5.438,8.798-8.67c3.482-3.228,6.542-6.63,9.18-10.2
			c2.634-3.57,4.375-7.224,5.228-10.965c0.849-3.737-0.255-7.395-3.314-10.965c-1.191,0-2.423,0.171-3.697,0.51
			c-1.275,0.343-2.85,1.147-4.718,2.422c-1.873,1.275-4.124,3.06-6.758,5.355C620.492,129.198,617.305,132.301,613.567,136.21z
			 M650.543,112.495c3.06-3.399,5.609-7.013,7.649-10.837c2.04-3.825,4.335-8.372,6.885-13.643
			c2.208-4.59,4.208-10.455,5.993-17.595c1.785-7.14,3.016-14.152,3.697-21.038c0.678-6.885,0.678-12.877,0-17.977
			c-0.682-5.1-2.383-7.817-5.1-8.16c-2.383-0.339-4.591,0.554-6.631,2.677c-2.04,2.128-3.912,4.762-5.609,7.905
			c-1.701,3.147-3.147,6.502-4.335,10.072c-1.191,3.57-2.04,6.718-2.55,9.435c-0.682,3.403-1.148,6.463-1.403,9.18
			c-0.255,2.721-0.426,5.57-0.51,8.542c-0.088,2.976-0.215,6.208-0.383,9.69c-0.171,3.486-0.51,7.777-1.02,12.877
			c0,2.55,0.128,5.1,0.383,7.65c0.255,2.55,0.594,4.718,1.02,6.502c0.423,1.785,0.805,3.148,1.147,4.08
			C650.116,112.794,650.371,113.005,650.543,112.495z"/>
		<path fill="#DADB34" stroke="#FBFADF" stroke-miterlimit="10" d="M723.984,103.57c-0.172,1.02-0.555,3.148-1.147,6.375
			c-0.598,3.231-1.235,7.013-1.913,11.348c-0.682,4.335-1.274,8.885-1.785,13.643c-0.51,4.761-0.809,9.268-0.893,13.515
			c-0.087,4.251,0.168,7.865,0.766,10.837c0.594,2.976,1.569,4.805,2.933,5.482c3.908,1.873,7.904,1.235,11.984-1.913
			c4.08-3.144,8.838-7.945,14.28-14.407c0.51,0,0.55,0.681,0.128,2.04c-0.427,1.362-1.108,2.849-2.04,4.462
			c-0.937,1.618-1.873,3.231-2.806,4.845c-0.937,1.618-1.657,2.678-2.167,3.188c-1.363,1.702-3.315,3.614-5.865,5.738
			c-2.55,2.127-5.271,3.825-8.16,5.1c-2.893,1.275-5.653,1.829-8.287,1.657c-2.638-0.167-4.806-1.697-6.503-4.59
			c-0.853-2.04-1.362-4.546-1.53-7.522c-0.171-2.973-0.171-5.993,0-9.053c0.168-3.06,0.423-5.865,0.766-8.415
			c0.339-2.55,0.594-4.418,0.765-5.61c-3.57,6.63-7.649,12.921-12.24,18.87c-4.59,5.953-9.096,10.626-13.515,14.025
			c-4.423,3.403-8.503,5.228-12.24,5.482c-3.741,0.255-6.63-1.913-8.67-6.502c-1.188-4.418-1.188-9.391,0-14.917
			c1.191-5.522,2.977-10.495,5.355-14.917c3.569-6.12,7.307-11.73,11.22-16.83c3.908-5.1,8.072-9.435,12.495-13.005
			c4.419-3.57,9.053-6.16,13.897-7.777C713.656,103.104,718.713,102.721,723.984,103.57z M676.044,168.34
			c1.697,0.343,4.419-0.932,8.16-3.825c3.737-2.889,7.649-6.925,11.729-12.113c4.08-5.184,7.778-11.22,11.093-18.105
			c3.315-6.885,5.482-14.152,6.503-21.802c-0.682,0-1.658,0-2.933,0c-1.275,0-2.766,0.51-4.463,1.53
			c-6.463,4.251-11.984,9.224-16.575,14.917c-4.59,5.698-8.159,11.22-10.71,16.575c-2.55,5.355-4.08,10.16-4.59,14.407
			C673.749,164.176,674.343,166.981,676.044,168.34z"/>
	</g>
	<g>
		<path fill="#F1F4D9" d="M281.416,289.619l-22.694-18.281c14.499-19.752,28.578-30.469,54.844-30.469
			c31.309,0,50.641,18.071,50.641,45.598c0,24.585-12.607,36.982-38.664,57.155l-23.955,18.491h64.089v27.947H256.831v-25.636
			l48.96-40.135c18.281-15.129,25.426-23.114,25.426-35.301c0-12.398-8.195-19.122-19.752-19.122
			C300.117,269.867,292.342,276.171,281.416,289.619z"/>
		<path fill="#F1F4D9" d="M453.926,392.582c-39.294,0-65.14-32.99-65.14-75.856s26.266-76.277,65.56-76.277
			c39.294,0,65.14,32.99,65.14,75.856S493.22,392.582,453.926,392.582z M453.926,269.657c-19.542,0-31.939,19.542-31.939,46.648
			c0,27.107,12.818,47.069,32.36,47.069c19.542,0,31.94-19.752,31.94-46.648S473.468,269.657,453.926,269.657z"/>
		<path fill="#F1F4D9" d="M577.06,241.92h22.063v148.141h-31.939V274.7l-25.636,6.304l-6.725-26.477L577.06,241.92z"/>
		<path fill="#F1F4D9" d="M684.643,392.162c-32.569,0-56.734-16.81-56.734-42.656c0-18.071,8.194-28.578,23.744-35.722
			c-11.347-6.934-18.701-16.39-18.701-32.36c0-22.694,20.593-40.555,51.691-40.555c31.1,0,51.691,17.861,51.691,40.555
			c0,15.97-7.354,25.426-18.701,32.36c14.919,7.775,23.745,17.23,23.745,34.881C741.378,376.192,717.213,392.162,684.643,392.162z
			 M684.643,328.703c-14.709,0-25.426,6.724-25.426,18.281c0,10.506,9.456,18.491,25.426,18.491s25.426-7.985,25.426-18.491
			C710.068,335.427,699.352,328.703,684.643,328.703z M684.643,267.556c-13.238,0-21.013,7.985-21.013,17.23
			c0,10.506,8.195,18.281,21.013,18.281c12.818,0,21.013-7.565,21.013-18.071C705.655,275.75,697.881,267.556,684.643,267.556z"/>
	</g>
</g>
<g>
	<path fill="#E9F3F3" stroke="#64AFC6" stroke-miterlimit="10" d="M32.051,475.76h67.824v40.393H88.643v75.815h11.232v40.392H32.051
		v-40.392h11.232v-75.815H32.051V475.76z"/>
	<path fill="#E9F3F3" stroke="#64AFC6" stroke-miterlimit="10" d="M230.554,556.76v78.191h-38.448v-4.967
		c-7.057,2.447-14.186,3.672-21.384,3.672c-7.776,0-15.41-1.33-22.896-3.996c-7.489-2.664-14.33-6.588-20.52-11.771
		c-7.344-6.19-12.852-13.427-16.524-21.709c-3.672-8.279-5.508-16.811-5.508-25.596c0-7.344,1.336-14.613,4.016-21.816
		c2.68-7.199,6.77-13.824,12.271-19.871c6.514-7.055,14.715-12.383,24.604-15.984c9.889-3.598,20.021-5.4,30.389-5.4
		c7.776,0,15.515,1.188,23.22,3.564c7.702,2.375,14.796,5.939,21.276,10.691l-26.136,28.297c-3.314-2.016-6.625-3.457-9.936-4.32
		c-3.314-0.864-6.48-1.297-9.504-1.297c-5.184,0-9.936,0.939-14.256,2.809c-4.32,1.873-7.418,4.104-9.288,6.695
		c-2.018,2.593-3.53,5.438-4.536,8.533c-1.009,3.098-1.512,6.155-1.512,9.18c0,3.314,0.678,6.48,2.042,9.504
		c1.36,3.023,3.473,5.762,6.338,8.208c4.87,4.179,10.459,6.264,16.764,6.264c6.014,0,11.604-2.015,16.76-6.048h-13.608l7.56-33.048
		L230.554,556.76z"/>
	<path fill="#E9F3F3" stroke="#64AFC6" stroke-miterlimit="10" d="M319.329,508.376l39.96,123.983h-41.04l-3.888-14.256h-34.344
		l-3.889,14.256h-41.04l39.96-123.983H319.329z M303.993,583.111l-6.696-26.567l-6.911,26.567H303.993z"/>
	<path fill="#E9F3F3" stroke="#64AFC6" stroke-miterlimit="10" d="M461.238,565.615c-0.863,6.049-2.845,11.664-5.939,16.849
		c-3.099,5.185-6.912,9.649-11.448,13.392c-4.536,3.746-9.687,6.662-15.444,8.748c-5.761,2.09-11.738,3.133-17.928,3.133
		c-0.722,0-1.657,0-2.808,0c-1.154,0-2.09-0.071-2.809-0.217v24.84h-40.607V508.376h38.448c8.208,0,15.909,1.08,23.111,3.239
		c7.199,2.16,13.463,5.293,18.792,9.396c5.326,4.104,9.538,9.18,12.636,15.229c3.096,6.048,4.645,12.889,4.645,20.52
		C461.886,559.93,461.67,562.883,461.238,565.615z M420.63,557.947c0-2.558-0.938-4.729-2.809-6.51
		c-1.873-1.779-4.178-2.67-6.911-2.67h-6.049v18.576h6.049c2.733,0,5.038-0.888,6.911-2.67
		C419.692,562.896,420.63,560.654,420.63,557.947z"/>
	<path fill="#E9F3F3" stroke="#64AFC6" stroke-miterlimit="10" d="M532.518,506.216c9.213,0,17.928,1.694,26.135,5.076
		c8.209,3.385,15.336,7.958,21.385,13.716c6.049,5.762,10.834,12.564,14.363,20.412c3.527,7.85,5.293,16.166,5.293,24.947
		c0,8.932-1.766,17.281-5.293,25.057c-3.529,7.775-8.314,14.58-14.363,20.412s-13.176,10.404-21.385,13.717
		c-8.207,3.311-16.922,4.967-26.135,4.967c-9.363,0-18.111-1.656-26.244-4.967c-8.137-3.313-15.228-7.885-21.276-13.717
		c-6.049-5.832-10.838-12.637-14.364-20.412c-3.53-7.775-5.292-16.125-5.292-25.057c0-8.781,1.762-17.098,5.292-24.947
		c3.526-7.848,8.315-14.65,14.364-20.412c6.048-5.758,13.139-10.331,21.276-13.716C514.406,507.91,523.154,506.216,532.518,506.216z
		 M558.221,570.044c0-3.294-0.648-6.413-1.943-9.353c-1.297-2.939-3.098-5.484-5.4-7.634c-2.305-2.149-5.006-3.871-8.1-5.161
		c-3.098-1.289-6.373-1.937-9.828-1.937c-3.457,0-6.732,0.647-9.828,1.937c-3.098,1.29-5.762,3.012-7.992,5.161
		c-2.234,2.149-4.033,4.694-5.4,7.634c-1.369,2.939-2.051,6.059-2.051,9.353c0,3.298,0.682,6.416,2.051,9.355
		c1.367,2.939,3.166,5.484,5.4,7.634c2.23,2.15,4.895,3.871,7.992,5.16c3.096,1.29,6.371,1.935,9.828,1.935
		c3.455,0,6.73-0.645,9.828-1.935c3.094-1.289,5.795-3.01,8.1-5.16c2.303-2.149,4.104-4.694,5.4-7.634
		C557.572,576.46,558.221,573.342,558.221,570.044z"/>
	<path fill="#E9F3F3" stroke="#64AFC6" stroke-miterlimit="10" d="M714.82,632.359h-43.633
		c-6.338-9.072-11.232-15.801-14.688-20.195c-3.455-4.391-5.977-7.344-7.561-8.855c-1.586-1.513-2.521-2.016-2.807-1.513
		c-0.291,0.507-0.434,1.046-0.434,1.62v28.943h-40.607V508.376h49.68c5.904,0,11.664,1.296,17.281,3.888
		c5.615,2.592,10.438,5.978,14.471,10.152c4.607,4.465,8.102,9.541,10.477,15.229c2.377,5.689,3.564,11.484,3.564,17.387
		c0,6.049-1.188,12.025-3.564,17.929c-2.375,5.906-5.869,11.231-10.477,15.983L714.82,632.359z M661.252,554.6
		c0-2.592-0.938-4.822-2.809-6.695c-1.873-1.87-4.178-2.809-6.912-2.809h-6.264v19.008h6.264c2.734,0,5.039-0.935,6.912-2.808
		C660.314,559.426,661.252,557.191,661.252,554.6z"/>
	<path fill="#E9F3F3" stroke="#64AFC6" stroke-miterlimit="10" d="M800.787,502.76l39.959,129.6h-41.039l-3.889-14.904h-34.344
		l-3.889,14.904h-41.039l39.959-129.6H800.787z M794.307,501.464c-2.883,0-5.617-0.719-8.209-2.16
		c-2.592-1.438-5.076-3.058-7.451-4.86c-2.377-1.799-4.719-3.419-7.02-4.86c-2.307-1.438-4.537-2.16-6.697-2.16
		s-3.779,0.291-4.859,0.864c-1.08,0.577-1.98,1.333-2.699,2.268c-0.723,0.938-1.404,1.981-2.053,3.132
		c-0.648,1.154-1.549,2.376-2.699,3.672c-0.723,0-1.695-0.432-2.916-1.296c-1.227-0.864-2.414-1.907-3.564-3.132
		c-1.154-1.222-2.127-2.518-2.916-3.888c-0.793-1.367-1.188-2.484-1.188-3.348c0-0.864,0.215-1.944,0.646-3.24
		c0.434-1.296,0.973-2.592,1.621-3.888s1.33-2.518,2.051-3.672c0.721-1.151,1.367-2.015,1.945-2.592
		c2.014-2.015,4.246-3.813,6.695-5.4c2.447-1.583,5.184-2.376,8.209-2.376c3.023,0,5.832,0.722,8.424,2.16
		c2.592,1.441,5.109,3.061,7.559,4.86c2.447,1.802,4.824,3.422,7.129,4.86c2.301,1.441,4.535,2.16,6.695,2.16
		c3.166,0,5.688-1.222,7.561-3.672c1.869-2.447,3.598-4.823,5.184-7.128c1.729,1.586,3.527,3.638,5.4,6.156
		c1.869,2.521,3.527,4.789,4.969,6.804c-0.434,2.305-1.371,4.681-2.809,7.128c-1.441,2.45-3.133,4.681-5.076,6.696
		c-1.943,2.019-4.141,3.672-6.588,4.968C799.199,500.816,796.754,501.464,794.307,501.464z M783.074,578.145l-4.32-17.713
		l-4.535,17.713H783.074z"/>
</g>
</svg>
